<svg width="38" height="37" viewBox="0 0 38 37" fill="none" xmlns="http://www.w3.org/2000/svg">
<path d="M20.6299 3.02441C22.4111 3.02895 23.3152 3.03802 24.0958 3.05919L24.403 3.06978C24.7576 3.08188 25.1075 3.097 25.5303 3.11515C27.215 3.19076 28.3645 3.4448 29.3731 3.81832C30.4181 4.20241 31.2984 4.72261 32.1787 5.56188C32.9838 6.31782 33.6068 7.23223 34.0043 8.24149C34.3954 9.20476 34.6614 10.3026 34.7406 11.9131C34.7596 12.3153 34.7754 12.6495 34.788 12.9898L34.7976 13.2831C34.8213 14.0271 34.8308 14.8906 34.834 16.5918L34.8356 17.7199V19.7009C34.8394 20.8039 34.8273 21.9069 34.7991 23.0096L34.7896 23.3029C34.777 23.6432 34.7611 23.9774 34.7421 24.3796C34.663 25.9901 34.3938 27.0865 34.0043 28.0512C33.608 29.0611 32.9848 29.9757 32.1787 30.7309C31.387 31.4995 30.4296 32.0945 29.3731 32.4744C28.3645 32.8479 27.215 33.102 25.5303 33.1776C25.1546 33.1945 24.7788 33.2096 24.403 33.2229L24.0958 33.232C23.3152 33.2532 22.4111 33.2638 20.6299 33.2668L19.4487 33.2683H17.3761C16.2207 33.2721 15.0653 33.2605 13.9102 33.2335L13.603 33.2245C13.2272 33.2109 12.8514 33.1952 12.4757 33.1776C10.791 33.102 9.64155 32.8479 8.63138 32.4744C7.57478 32.0954 6.61773 31.5003 5.8273 30.7309C5.02145 29.9752 4.3979 29.0607 4.00013 28.0512C3.60905 27.088 3.34305 25.9901 3.26388 24.3796C3.24624 24.0208 3.23041 23.6619 3.21638 23.3029L3.20847 23.0096C3.17929 21.9069 3.16609 20.8039 3.16888 19.7009V16.5918C3.16446 15.4888 3.17608 14.3858 3.20372 13.2831L3.2148 12.9898C3.22747 12.6495 3.2433 12.3153 3.2623 11.9131C3.34147 10.3026 3.60747 9.20627 3.99855 8.24149C4.39615 7.2312 5.02094 6.3165 5.82888 5.56188C6.61911 4.79289 7.57553 4.19786 8.63138 3.81832C9.64155 3.4448 10.7895 3.19076 12.4757 3.11515C12.8969 3.097 13.2484 3.08188 13.603 3.06978L13.9102 3.06071C15.0648 3.03384 16.2197 3.02224 17.3745 3.02593L20.6299 3.02441ZM19.0022 10.5854C16.9026 10.5854 14.889 11.382 13.4043 12.7999C11.9196 14.2179 11.0855 16.1411 11.0855 18.1464C11.0855 20.1517 11.9196 22.0748 13.4043 23.4928C14.889 24.9107 16.9026 25.7073 19.0022 25.7073C21.1018 25.7073 23.1155 24.9107 24.6001 23.4928C26.0848 22.0748 26.9189 20.1517 26.9189 18.1464C26.9189 16.1411 26.0848 14.2179 24.6001 12.7999C23.1155 11.382 21.1018 10.5854 19.0022 10.5854ZM19.0022 13.6098C19.626 13.6097 20.2437 13.7269 20.82 13.9548C21.3964 14.1827 21.9201 14.5168 22.3612 14.938C22.8024 15.3592 23.1523 15.8592 23.3911 16.4096C23.6299 16.96 23.7529 17.5499 23.753 18.1456C23.7531 18.7414 23.6304 19.3313 23.3917 19.8817C23.1531 20.4322 22.8033 20.9324 22.3623 21.3537C21.9213 21.775 21.3977 22.1093 20.8215 22.3373C20.2452 22.5654 19.6276 22.6829 19.0038 22.683C17.744 22.683 16.5358 22.205 15.645 21.3542C14.7542 20.5034 14.2538 19.3495 14.2538 18.1464C14.2538 16.9432 14.7542 15.7893 15.645 14.9385C16.5358 14.0877 17.744 13.6098 19.0038 13.6098M27.3163 8.3171C26.7914 8.3171 26.288 8.51625 25.9168 8.87074C25.5457 9.22523 25.3371 9.70602 25.3371 10.2073C25.3371 10.7087 25.5457 11.1895 25.9168 11.5439C26.288 11.8984 26.7914 12.0976 27.3163 12.0976C27.8412 12.0976 28.3446 11.8984 28.7158 11.5439C29.087 11.1895 29.2955 10.7087 29.2955 10.2073C29.2955 9.70602 29.087 9.22523 28.7158 8.87074C28.3446 8.51625 27.8412 8.3171 27.3163 8.3171Z" fill="#0D0D0D" fill-opacity="0.8"/>
</svg>
