<svg width="25" height="26" viewBox="0 0 25 26" fill="none" xmlns="http://www.w3.org/2000/svg">
<path d="M12.404 0.467041C5.56125 0.467041 0 6.02829 0 12.871C0 19.7138 5.56125 25.275 12.404 25.275C19.2468 25.275 24.808 19.7138 24.808 12.871C24.808 6.02829 19.2468 0.467041 12.404 0.467041ZM16.587 2.7399C19.2709 3.85215 21.4229 6.00411 22.5351 8.68802L20.0205 9.72773C19.1742 7.69666 17.5784 6.07665 15.5473 5.25455L16.587 2.7399ZM8.22098 2.7399L9.26069 5.25455C7.22962 6.10083 5.60961 7.69666 4.78751 9.72773L2.27286 8.68802C3.38511 5.97993 5.51289 3.85215 8.22098 2.7399ZM8.22098 23.0022C5.53707 21.8899 3.38511 19.738 2.27286 17.0541L4.78751 16.0144C5.63379 18.0454 7.22962 19.6654 9.26069 20.4875L8.22098 23.0022ZM5.60961 12.871C5.60961 9.12324 8.6562 6.07665 12.404 6.07665C16.1518 6.07665 19.1984 9.12324 19.1984 12.871C19.1984 16.6188 16.1518 19.6654 12.404 19.6654C8.6562 19.6654 5.60961 16.6188 5.60961 12.871ZM16.587 23.0022L15.5473 20.4875C17.5784 19.6413 19.1984 18.0454 20.0205 16.0144L22.5351 17.0541C21.4229 19.7622 19.2951 21.8899 16.587 23.0022Z" fill="url(#paint0_linear_1_2447)"/>
<path d="M12.8775 10.0001L13.3551 10.1899C13.3931 10.2047 13.4184 10.2437 13.4184 10.2868C13.4184 10.3299 13.3931 10.3689 13.3551 10.3837L12.8775 10.5735L12.6989 11.081C12.685 11.1214 12.6482 11.1483 12.6077 11.1483C12.5672 11.1483 12.5304 11.1214 12.5165 11.081L12.3379 10.5735L11.8603 10.3837C11.8223 10.3689 11.797 10.3299 11.797 10.2868C11.797 10.2437 11.8223 10.2047 11.8603 10.1899L12.3379 10.0001L12.5165 9.4926C12.5304 9.45222 12.5672 9.42529 12.6077 9.42529C12.6482 9.42529 12.685 9.45222 12.6989 9.4926L12.8775 10.0001ZM15.2666 14.7478C15.5035 14.9996 15.5035 15.4088 15.2666 15.6619L14.8283 16.1276C14.5914 16.3793 14.2063 16.3793 13.9682 16.1276L9.13809 10.9935C8.9012 10.7418 8.9012 10.3326 9.13809 10.0795L9.57638 9.6151C9.81326 9.36337 10.1984 9.36337 10.4365 9.6151L15.2666 14.7478ZM9.71192 10.5372L11.042 11.9506L11.3372 11.637L10.0071 10.2235L9.71192 10.5372ZM15.7556 11.0029C15.8126 11.0258 15.8506 11.0837 15.8506 11.1483C15.8506 11.2129 15.8126 11.2708 15.7556 11.2937L15.0399 11.5791L14.7713 12.3396C14.7498 12.4002 14.6953 12.4406 14.6345 12.4406C14.5737 12.4406 14.5192 12.4002 14.4977 12.3396L14.2291 11.5791L13.5134 11.2937C13.4564 11.2708 13.4184 11.2129 13.4184 11.1483C13.4184 11.0837 13.4564 11.0258 13.5134 11.0029L14.2291 10.7176L14.4977 9.95701C14.5192 9.89643 14.5737 9.85605 14.6345 9.85605C14.6953 9.85605 14.7498 9.89643 14.7713 9.95701L15.0399 10.7176L15.7556 11.0029ZM11.2966 14.449C11.3536 14.4719 11.3916 14.5298 11.3916 14.5944C11.3916 14.659 11.3536 14.7169 11.2966 14.7398L10.5809 15.0251L10.3124 15.7857C10.2908 15.8463 10.2364 15.8867 10.1756 15.8867C10.1147 15.8867 10.0603 15.8463 10.0387 15.7857L9.77019 15.0251L9.05448 14.7398C8.99748 14.7169 8.95947 14.659 8.95947 14.5944C8.95947 14.5298 8.99748 14.4719 9.05448 14.449L9.77019 14.1636L10.0387 13.4031C10.0603 13.3425 10.1147 13.3021 10.1756 13.3021C10.2364 13.3021 10.2908 13.3425 10.3124 13.4031L10.5809 14.1636L11.2966 14.449Z" fill="url(#paint1_linear_1_2447)"/>
<defs>
<linearGradient id="paint0_linear_1_2447" x1="12.404" y1="0.467041" x2="12.404" y2="25.275" gradientUnits="userSpaceOnUse">
<stop stop-color="#5237F8"/>
<stop offset="0.0001" stop-color="#6033EF"/>
<stop offset="1" stop-color="#FF008A"/>
</linearGradient>
<linearGradient id="paint1_linear_1_2447" x1="12.405" y1="9.42529" x2="12.405" y2="16.3164" gradientUnits="userSpaceOnUse">
<stop stop-color="#5237F8"/>
<stop offset="0.0001" stop-color="#6033EF"/>
<stop offset="1" stop-color="#FF008A"/>
</linearGradient>
</defs>
</svg>
