<svg width="38" height="37" viewBox="0 0 38 37" fill="none" xmlns="http://www.w3.org/2000/svg">
<path d="M26.2826 8.80101C25.2003 7.62093 24.6038 6.10542 24.6043 4.53662H19.7118V23.2878C19.674 24.3026 19.2255 25.2637 18.4606 25.9689C17.6957 26.674 16.6741 27.0682 15.6109 27.0683C13.3626 27.0683 11.4943 25.3142 11.4943 23.1366C11.4943 20.5356 14.1226 18.5849 16.8301 19.3864V14.6078C11.3676 13.9122 6.58594 17.9649 6.58594 23.1366C6.58594 28.1722 10.9559 31.7561 15.5951 31.7561C20.5668 31.7561 24.6043 27.9 24.6043 23.1366V13.6249C26.5882 14.9857 28.9701 15.7157 31.4126 15.7117V11.0391C31.4126 11.0391 28.4359 11.1752 26.2826 8.80101Z" fill="#0D0D0D" fill-opacity="0.8"/>
</svg>
